<?xml version="1.0" encoding="UTF-8"?>
<svg width="422px" height="64px" viewBox="0 0 422 64" version="1.1" xmlns="http://www.w3.org/2000/svg" xmlns:xlink="http://www.w3.org/1999/xlink">
    <!-- Generator: Sketch 52.5 (67469) - http://www.bohemiancoding.com/sketch -->
    <title>Group</title>
    <desc>Created with Sketch.</desc>
    <g id="Page-1" stroke="none" stroke-width="1" fill="none" fill-rule="evenodd">
        <g id="Artboard" transform="translate(-176.000000, -193.000000)">
            <g id="Group" transform="translate(176.000000, 193.000000)">
                <path d="M89.1211306,7 L96.7604307,7 L115,49 L104.577389,49 L100.965007,40.1016949 L84.679677,40.1016949 L81.1857335,49 L71,49 L89.1211306,7 Z M92.9710983,20 L88,33 L98,33 L92.9710983,20 Z M148,46.6273713 C148,51.9878317 146.639849,56.0566708 143.919508,58.8340108 C141.199166,61.6113508 137.060003,63 131.501894,63 C128.957689,63 126.452664,62.7183858 123.986742,62.1551491 C121.520821,61.5919123 119.250642,60.4945881 117.176136,58.8631436 L122.049242,51.6382114 C123.419199,52.7646849 124.857631,53.6580816 126.364583,54.3184282 C127.871535,54.9787748 129.525244,55.3089431 131.325758,55.3089431 C134.026529,55.3089431 136.012936,54.6583173 137.285038,53.3570461 C138.55714,52.0557749 139.193182,50.3952224 139.193182,48.3753388 L139.193182,45.6368564 L139.075758,45.6368564 C138.058076,46.9963934 136.795778,47.9577659 135.288826,48.5210027 C133.781874,49.0842395 132.363012,49.3658537 131.032197,49.3658537 C128.91855,49.3658537 127.00064,49.0065528 125.278409,48.2879404 C123.556178,47.5693279 122.078605,46.5594013 120.845644,45.2581301 C119.612683,43.9568589 118.663513,42.4128364 117.998106,40.6260163 C117.332699,38.8391961 117,36.8776078 117,34.7411924 C117,32.8766844 117.303343,31.0510478 117.910038,29.2642276 C118.516733,27.4774075 119.377835,25.9042525 120.493371,24.5447154 C121.608907,23.1851784 122.969058,22.0878542 124.573864,21.25271 C126.17867,20.4175658 127.998727,20 130.034091,20 C131.286622,20 132.431497,20.1359517 133.46875,20.4078591 C134.506003,20.6797665 135.435602,21.0293565 136.257576,21.4566396 C137.07955,21.8839226 137.784088,22.3597535 138.371212,22.8841463 C138.958336,23.4085392 139.428029,23.9232134 139.780303,24.4281843 L139.897727,24.4281843 L139.897727,20.699187 L148,20.699187 L148,46.6273713 Z M126,35 C126,35.933338 126.174998,36.8180514 126.525,37.6541667 C126.875002,38.490282 127.37083,39.2291635 128.0125,39.8708333 C128.65417,40.5125032 129.393051,41.0277758 130.229167,41.4166667 C131.065282,41.8055575 131.988884,42 133,42 C133.972227,42 134.886107,41.8055575 135.741667,41.4166667 C136.597227,41.0277758 137.34583,40.5125032 137.9875,39.8708333 C138.62917,39.2291635 139.124998,38.490282 139.475,37.6541667 C139.825002,36.8180514 140,35.933338 140,35 C140,34.066662 139.825002,33.1819486 139.475,32.3458333 C139.124998,31.509718 138.62917,30.7708365 137.9875,30.1291667 C137.34583,29.4874968 136.597227,28.9722242 135.741667,28.5833333 C134.886107,28.1944425 133.972227,28 133,28 C131.988884,28 131.065282,28.1944425 130.229167,28.5833333 C129.393051,28.9722242 128.65417,29.4874968 128.0125,30.1291667 C127.37083,30.7708365 126.875002,31.509718 126.525,32.3458333 C126.174998,33.1819486 126,34.066662 126,35 Z M183.660643,44.3529412 C182.263045,46.1568718 180.496664,47.5490147 178.361446,48.5294118 C176.226228,49.5098088 174.013398,50 171.722892,50 C169.548851,50 167.501014,49.6470624 165.579317,48.9411765 C163.657621,48.2352906 161.988294,47.2254968 160.571285,45.9117647 C159.154277,44.5980326 158.038157,43.0196171 157.222892,41.1764706 C156.407626,39.3333241 156,37.2745212 156,35 C156,32.7254788 156.407626,30.6666759 157.222892,28.8235294 C158.038157,26.9803829 159.154277,25.4019674 160.571285,24.0882353 C161.988294,22.7745032 163.657621,21.7647094 165.579317,21.0588235 C167.501014,20.3529376 169.548851,20 171.722892,20 C173.741643,20 175.575962,20.3529376 177.225904,21.0588235 C178.875845,21.7647094 180.273421,22.7745032 181.418675,24.0882353 C182.563928,25.4019674 183.447119,26.9803829 184.068273,28.8235294 C184.689427,30.6666759 185,32.7254788 185,35 L185,37.7647059 L164.73494,37.7647059 C165.084339,39.4509888 165.84136,40.7941126 167.006024,41.7941176 C168.170689,42.7941226 169.607087,43.2941176 171.315261,43.2941176 C172.751681,43.2941176 173.964854,42.9705915 174.954819,42.3235294 C175.944784,41.6764674 176.808564,40.8431424 177.546185,39.8235294 L183.660643,44.3529412 Z M175.997756,32 C176.038152,30.3478178 175.533201,28.9347885 174.482888,27.7608696 C173.432574,26.5869507 172.079305,26 170.423041,26 C169.413124,26 168.52441,26.1739113 167.756873,26.5217391 C166.989336,26.869567 166.3329,27.3152147 165.787544,27.8586957 C165.242189,28.4021766 164.81803,29.0326051 164.515055,29.75 C164.21208,30.4673949 164.040397,31.2173874 164,32 L175.997756,32 Z M224.166405,14.7526882 C222.772364,13.2544728 221.107283,12.0716889 219.171115,11.2043011 C217.234946,10.3369132 214.989024,9.90322581 212.433281,9.90322581 C209.800091,9.90322581 207.438001,10.3960524 205.346939,11.3817204 C203.255877,12.3673884 201.484309,13.6881638 200.032182,15.344086 C198.580056,17.0000083 197.466775,18.9220321 196.692308,21.1102151 C195.91784,23.298398 195.530612,25.5949701 195.530612,28 C195.530612,30.4050299 195.91784,32.701602 196.692308,34.8897849 C197.466775,37.0779679 198.580056,38.9999917 200.032182,40.655914 C201.484309,42.3118362 203.255877,43.6326116 205.346939,44.6182796 C207.438001,45.6039476 209.800091,46.0967742 212.433281,46.0967742 C214.563067,46.0967742 216.605694,45.8306478 218.561224,45.2983871 C220.516755,44.7661264 222.268961,44.0465995 223.817896,43.1397849 L223.817896,29.1236559 L214.00157,29.1236559 L214.00157,25.2204301 L228,25.2204301 L228,45.7419355 C225.676597,47.1218707 223.130574,48.1765197 220.361852,48.905914 C217.593131,49.6353083 214.9503,50 212.433281,50 C209.374134,50 206.53769,49.4480342 203.923862,48.344086 C201.310034,47.2401378 199.044751,45.7123753 197.127943,43.7607527 C195.211136,41.80913 193.710628,39.4928449 192.626374,36.811828 C191.542119,34.130811 191,31.1935644 191,28 C191,24.8064356 191.542119,21.869189 192.626374,19.188172 C193.710628,16.5071551 195.211136,14.19087 197.127943,12.2392473 C199.044751,10.2876247 201.310034,8.75986215 203.923862,7.65591398 C206.53769,6.55196581 209.374134,6 212.433281,6 C215.724768,6 218.561213,6.46325702 220.9427,7.38978495 C223.324188,8.31631288 225.444261,9.72579699 227.302983,11.6182796 L224.166405,14.7526882 Z M253.97619,35 C252.984122,35 251.744055,35.0495491 250.255952,35.1486486 C248.76785,35.2477482 247.339293,35.4855837 245.970238,35.8621622 C244.601184,36.2387406 243.43056,36.8234195 242.458333,37.6162162 C241.486106,38.409013 241,39.4990922 241,40.8864865 C241,41.7982028 241.18849,42.5810778 241.565476,43.2351351 C241.942462,43.8891925 242.44841,44.4243222 243.083333,44.8405405 C243.718257,45.2567588 244.422615,45.5540532 245.196429,45.7324324 C245.970242,45.9108117 246.753964,46 247.547619,46 C248.976198,46 250.216265,45.7621645 251.267857,45.2864865 C252.31945,44.8108084 253.202377,44.1666707 253.916667,43.3540541 C254.630956,42.5414374 255.156744,41.5900955 255.494048,40.5 C255.831351,39.4099045 256,38.2504566 256,37.0216216 L256,35 L253.97619,35 Z M256.537688,32.3760163 L256.537688,31.6686992 C256.537688,26.9139329 254.125652,24.5365854 249.301508,24.5365854 C246.005009,24.5365854 243.130666,25.6171979 240.678392,27.7784553 L238.266332,25.0081301 C240.919611,22.33603 244.899471,21 250.20603,21 C251.572871,21 252.889441,21.196475 254.155779,21.5894309 C255.422117,21.9823868 256.517583,22.5816355 257.442211,23.3871951 C258.366839,24.1927547 259.11055,25.204601 259.673367,26.4227642 C260.236184,27.6409275 260.517588,29.0948425 260.517588,30.7845528 L260.517588,43.1036585 C260.517588,44.1646395 260.567839,45.2747232 260.668342,46.4339431 C260.768845,47.593163 260.879396,48.5460667 261,49.2926829 L257.140704,49.2926829 C257.0201,48.6246579 256.929649,47.8977004 256.869347,47.1117886 C256.809045,46.3258768 256.778894,45.5596243 256.778894,44.8130081 L256.658291,44.8130081 C255.492456,46.6599008 254.115586,47.9861071 252.527638,48.7916667 C250.939691,49.5972262 249.000011,50 246.708543,50 C245.462305,50 244.256287,49.8329962 243.090452,49.4989837 C241.924617,49.1649712 240.889452,48.6541362 239.984925,47.9664634 C239.080397,47.2787906 238.356787,46.4339481 237.81407,45.4319106 C237.271354,44.429873 237,43.2608468 237,41.9247967 C237,39.6849482 237.592959,37.9264969 238.778894,36.6493902 C239.96483,35.3722836 241.452252,34.4193798 243.241206,33.7906504 C245.03016,33.161921 246.939688,32.768971 248.969849,32.6117886 C251.00001,32.4546063 252.859288,32.3760163 254.547739,32.3760163 L256.537688,32.3760163 Z M284.763158,25.2941176 L276.769737,25.2941176 L276.769737,41.5294118 C276.769737,42.5490247 276.86842,43.3823497 277.065789,44.0294118 C277.263159,44.6764738 277.539472,45.1764688 277.894737,45.5294118 C278.250002,45.8823547 278.67434,46.1274503 279.167763,46.2647059 C279.661187,46.4019615 280.203944,46.4705882 280.796053,46.4705882 C281.467109,46.4705882 282.157891,46.37255 282.868421,46.1764706 C283.578951,45.9803912 284.23026,45.7254918 284.822368,45.4117647 L285,49 C283.539466,49.66667 281.782905,50 279.730263,50 C278.980259,50 278.200662,49.9019618 277.391447,49.7058824 C276.582233,49.5098029 275.842109,49.1372576 275.171053,48.5882353 C274.499997,48.0392129 273.947371,47.2941224 273.513158,46.3529412 C273.078945,45.41176 272.861842,44.1764782 272.861842,42.6470588 L272.861842,25.2941176 L267,25.2941176 L267,21.7647059 L272.861842,21.7647059 L272.861842,14 L276.769737,14 L276.769737,21.7647059 L284.763158,21.7647059 L284.763158,25.2941176 Z M312,34 C312,31.3199866 311.19832,29.1500083 309.594937,27.49 C307.991553,25.8299917 305.74685,25 302.860759,25 C301.578053,25 300.335449,25.2499975 299.132911,25.75 C297.930374,26.2500025 296.878169,26.9199958 295.976266,27.76 C295.074363,28.6000042 294.352851,29.5599946 293.811709,30.64 C293.270567,31.7200054 293,32.8399942 293,34 L312,34 Z M292.26087,36.5609756 C292.382609,37.9363212 292.727533,39.2330562 293.295652,40.4512195 C293.863771,41.6693828 294.614488,42.720524 295.547826,43.6046748 C296.481164,44.4888256 297.556516,45.1863118 298.773913,45.6971545 C299.99131,46.2079971 301.310138,46.4634146 302.730435,46.4634146 C304.88117,46.4634146 306.737673,45.9820509 308.3,45.0193089 C309.862327,44.056567 311.049271,42.9464833 311.86087,41.6890244 L314.965217,44.1646341 C313.260861,46.2473004 311.384068,47.7405104 309.334783,48.6443089 C307.285497,49.5481075 305.08407,50 302.730435,50 C300.620279,50 298.662328,49.6365212 296.856522,48.9095528 C295.050716,48.1825844 293.498557,47.1707382 292.2,45.8739837 C290.901443,44.5772293 289.876815,43.0447243 289.126087,41.2764228 C288.375359,39.5081212 288,37.5826662 288,35.5 C288,33.4173338 288.365214,31.4918788 289.095652,29.7235772 C289.826091,27.9552757 290.840573,26.4227707 292.13913,25.1260163 C293.437688,23.8292618 294.959412,22.8174156 296.704348,22.0904472 C298.449284,21.3634787 300.336222,21 302.365217,21 C304.515953,21 306.44347,21.3733025 308.147826,22.1199187 C309.852182,22.8665349 311.282603,23.8587336 312.43913,25.0965447 C313.595658,26.3343558 314.478258,27.7882708 315.086957,29.4583333 C315.695655,31.1283959 316,32.9064946 316,34.7926829 L316,36.5609756 L292.26087,36.5609756 Z M324.608069,21 L330.988473,43.7350427 L331.106628,43.7350427 L338.491354,21 L342.508646,21 L349.893372,43.7350427 L350.011527,43.7350427 L356.391931,21 L361,21 L352.256484,49 L347.884726,49 L340.559078,26.025641 L340.440922,26.025641 L333.115274,49 L328.743516,49 L320,21 L324.608069,21 Z M382.97619,35 C381.984122,35 380.744055,35.0495491 379.255952,35.1486486 C377.76785,35.2477482 376.339293,35.4855837 374.970238,35.8621622 C373.601184,36.2387406 372.43056,36.8234195 371.458333,37.6162162 C370.486106,38.409013 370,39.4990922 370,40.8864865 C370,41.7982028 370.18849,42.5810778 370.565476,43.2351351 C370.942462,43.8891925 371.44841,44.4243222 372.083333,44.8405405 C372.718257,45.2567588 373.422615,45.5540532 374.196429,45.7324324 C374.970242,45.9108117 375.753964,46 376.547619,46 C377.976198,46 379.216265,45.7621645 380.267857,45.2864865 C381.31945,44.8108084 382.202377,44.1666707 382.916667,43.3540541 C383.630956,42.5414374 384.156744,41.5900955 384.494048,40.5 C384.831351,39.4099045 385,38.2504566 385,37.0216216 L385,35 L382.97619,35 Z M385.537688,32.3760163 L385.537688,31.6686992 C385.537688,26.9139329 383.125652,24.5365854 378.301508,24.5365854 C375.005009,24.5365854 372.130666,25.6171979 369.678392,27.7784553 L367.266332,25.0081301 C369.919611,22.33603 373.899471,21 379.20603,21 C380.572871,21 381.889441,21.196475 383.155779,21.5894309 C384.422117,21.9823868 385.517583,22.5816355 386.442211,23.3871951 C387.366839,24.1927547 388.11055,25.204601 388.673367,26.4227642 C389.236184,27.6409275 389.517588,29.0948425 389.517588,30.7845528 L389.517588,43.1036585 C389.517588,44.1646395 389.567839,45.2747232 389.668342,46.4339431 C389.768845,47.593163 389.879396,48.5460667 390,49.2926829 L386.140704,49.2926829 C386.0201,48.6246579 385.929649,47.8977004 385.869347,47.1117886 C385.809045,46.3258768 385.778894,45.5596243 385.778894,44.8130081 L385.658291,44.8130081 C384.492456,46.6599008 383.115586,47.9861071 381.527638,48.7916667 C379.939691,49.5972262 378.000011,50 375.708543,50 C374.462305,50 373.256287,49.8329962 372.090452,49.4989837 C370.924617,49.1649712 369.889452,48.6541362 368.984925,47.9664634 C368.080397,47.2787906 367.356787,46.4339481 366.81407,45.4319106 C366.271354,44.429873 366,43.2608468 366,41.9247967 C366,39.6849482 366.592959,37.9264969 367.778894,36.6493902 C368.96483,35.3722836 370.452252,34.4193798 372.241206,33.7906504 C374.03016,33.161921 375.939688,32.768971 377.969849,32.6117886 C380.00001,32.4546063 381.859288,32.3760163 383.547739,32.3760163 L385.537688,32.3760163 Z M408.708609,44.9576271 L417.231788,22 L422,22 L408.05298,57 C407.218539,59.1356039 406.155636,60.8361519 404.864238,62.1016949 C403.572841,63.367238 401.715244,64 399.291391,64 C398.695361,64 398.089407,63.9802262 397.47351,63.940678 C396.857613,63.9011297 396.251659,63.7824869 395.655629,63.5847458 L396.072848,59.7881356 C396.907289,60.223166 397.900656,60.440678 399.05298,60.440678 C400.443716,60.440678 401.53642,60.0056541 402.331126,59.1355932 C403.125832,58.2655324 403.821189,57.0395559 404.417219,55.4576271 L406.443709,50.1186441 L395,22 L399.94702,22 L408.708609,44.9576271 Z" id="AgeGateway" fill="#000000" fill-rule="nonzero"></path>
                <g id="Icon">
                    <rect id="Background" fill="#000000" x="0" y="0" width="55.0824588" height="58.0869565"></rect>
                    <g id="Smooth-Corners" fill="#000000">
                        <path d="M55.0824588,27.5412294 C55.0824588,12.3306284 42.7518304,-2.79414207e-15 27.5412294,0 C12.3306284,2.79414207e-15 -1.86276138e-15,12.3306284 0,27.5412294 L0,0 L55.0824588,0 L55.0824588,27.5412294 Z M55.0824588,30.5457271 L55.0824588,58.0869565 L0,58.0869565 L0,30.5457271 C8.96818874e-15,45.7563281 12.3306284,58.0869565 27.5412294,58.0869565 C42.7518304,58.0869565 55.0824588,45.7563281 55.0824588,30.5457271 Z"></path>
                    </g>
                    <g id="Group" stroke-width="1" transform="translate(12.587202, 18.946332)" fill="#FFFFFF">
                        <path d="M16.7140836,9.2576087 C19.8382918,10.5645652 21.3100262,12.3616304 21.3100262,14.8394022 C21.3100262,18.1067935 18.8054957,20.1761413 14.8550506,20.1761413 C11.033705,20.1761413 8.60663418,18.2157065 8.60663418,15.138913 C8.60663418,13.668587 9.32959145,12.1710326 10.5431269,11.1908152 C11.1369846,10.7279348 11.8599419,10.3467391 13.0218375,9.85663043 C11.8599419,9.2576087 11.2660841,8.84918478 10.7238662,8.41353261 C9.7685298,7.56945652 9.35541136,6.58923913 9.35541136,5.11891304 C9.35541136,3.92086957 9.71688999,2.75005435 10.3365677,1.96043478 C11.291904,0.762391304 13.1251171,0 15.1132496,0 C17.1530219,0 18.9087753,0.816847826 19.8382918,2.20548913 C20.3288699,2.94065217 20.5612491,3.78472826 20.5612491,4.84663043 C20.5612491,6.18081522 20.0964908,7.16103261 19.0636947,8.03233696 C18.3407374,8.6313587 17.66942,8.98532609 16.7140836,9.2576087 Z M16.0169462,8.93086957 C17.8501593,8.08679348 18.7022161,6.80706522 18.7022161,4.90108696 C18.7022161,2.28717391 17.2821214,0.735163043 14.8550506,0.735163043 C12.6861788,0.735163043 11.291904,2.15103261 11.291904,4.35652174 C11.291904,5.79961957 11.8599419,6.67092391 13.434956,7.62391304 C13.7706147,7.81451087 13.7706147,7.81451087 15.268169,8.52244565 C15.4489084,8.6313587 15.7071074,8.74027174 16.0169462,8.93086957 Z M13.9255341,10.3195109 C12.9960176,10.64625 12.5828992,10.8913043 12.0406812,11.4086413 C11.0595249,12.3071739 10.5431269,13.5596739 10.5431269,14.9483152 C10.5431269,17.643913 12.3505201,19.4409783 15.0357899,19.4409783 C17.5403205,19.4409783 19.244434,17.8072826 19.244434,15.4111957 C19.244434,14.1042391 18.7022161,13.1784783 17.3337612,12.1710326 C16.8431831,11.789837 16.0427661,11.3541848 14.9583302,10.8096196 C14.7259511,10.7007065 13.9255341,10.3195109 13.9255341,10.3195109 Z" id="8" fill-rule="nonzero"></path>
                        <polygon id="+" fill-rule="nonzero" points="26.9688882 13.5483288 26.9688882 17.6144158 26.2911158 17.6144158 26.2911158 13.5483288 22.616083 13.5483288 22.616083 12.8971196 26.2911158 12.8971196 26.2911158 9.14869565 26.9688882 9.14869565 26.9688882 12.8971196 30.6288594 12.8971196 30.6288594 13.5483288"></polygon>
                        <path d="M0,19.6315761 L0,18.8419565 C1.11025581,18.7602717 1.36845484,18.7330435 1.70411357,18.5696739 C2.27215142,18.2973913 2.40125094,17.7255978 2.40125094,15.765163 L2.40125094,4.30206522 C2.34961113,1.93320652 2.34961113,1.93320652 2.14305191,1.7426087 C1.93649269,1.55201087 1.62665386,1.49755435 0.981156297,1.49755435 L0,1.49755435 L0,0.707934783 C1.96231259,0.571793478 3.64060626,0.32673913 4.90578148,0 C4.77668197,2.15103261 4.69922226,4.46543478 4.69922226,7.67836957 L4.69922226,15.765163 C4.69922226,17.5894565 4.80250187,18.1340217 5.16398051,18.4607609 C5.47381934,18.7330435 5.57709895,18.7602717 7.0488334,18.8419565 L7.0488334,19.6315761 L0,19.6315761 Z" id="1" fill-rule="nonzero"></path>
                    </g>
                </g>
            </g>
        </g>
    </g>
</svg>